<svg xmlns="http://www.w3.org/2000/svg" xmlns:xlink="http://www.w3.org/1999/xlink" width="600" zoomAndPan="magnify" viewBox="0 0 500 500.250001" height="523" preserveAspectRatio="xMidYMid meet" version="1.0"><defs><clipPath id="e887e57245"><path d="M 0.324219 20.273438 L 471.175781 20.273438 L 471.175781 361.179688 L 0.324219 361.179688 Z M 0.324219 20.273438 " clip-rule="nonzero"/></clipPath><clipPath id="d780cfc11d"><path d="M 153 102 L 154 102 L 154 103 L 153 103 Z M 153 102 " clip-rule="nonzero"/></clipPath><clipPath id="35d9e491fc"><path d="M 213.039062 8.253906 L 246.890625 156.09375 L 96.371094 190.558594 L 62.519531 42.71875 Z M 213.039062 8.253906 " clip-rule="nonzero"/></clipPath><clipPath id="55dec363c7"><path d="M 213.039062 8.253906 L 246.890625 156.09375 L 96.371094 190.558594 L 62.519531 42.71875 Z M 213.039062 8.253906 " clip-rule="nonzero"/></clipPath><clipPath id="4d031dcd5d"><path d="M 213.039062 8.253906 L 246.890625 156.09375 L 96.371094 190.558594 L 62.519531 42.71875 Z M 213.039062 8.253906 " clip-rule="nonzero"/></clipPath><clipPath id="4b5b89fb1e"><path d="M 105 26 L 225 26 L 225 166 L 105 166 Z M 105 26 " clip-rule="nonzero"/></clipPath><clipPath id="7174b2aac7"><path d="M 213.039062 8.253906 L 246.890625 156.09375 L 96.371094 190.558594 L 62.519531 42.71875 Z M 213.039062 8.253906 " clip-rule="nonzero"/></clipPath><clipPath id="f4c1f6399f"><path d="M 213.039062 8.253906 L 246.890625 156.09375 L 96.371094 190.558594 L 62.519531 42.71875 Z M 213.039062 8.253906 " clip-rule="nonzero"/></clipPath><clipPath id="ae323635a5"><path d="M 213.039062 8.253906 L 246.890625 156.09375 L 96.371094 190.558594 L 62.519531 42.71875 Z M 213.039062 8.253906 " clip-rule="nonzero"/></clipPath><clipPath id="225f3b714a"><path d="M 87 105 L 114 105 L 114 142 L 87 142 Z M 87 105 " clip-rule="nonzero"/></clipPath><clipPath id="3b7f2ddd2a"><path d="M 213.039062 8.253906 L 246.890625 156.09375 L 96.371094 190.558594 L 62.519531 42.71875 Z M 213.039062 8.253906 " clip-rule="nonzero"/></clipPath><clipPath id="4fdb7d1783"><path d="M 213.039062 8.253906 L 246.890625 156.09375 L 96.371094 190.558594 L 62.519531 42.71875 Z M 213.039062 8.253906 " clip-rule="nonzero"/></clipPath><clipPath id="784eaa6c8f"><path d="M 213.039062 8.253906 L 246.890625 156.09375 L 96.371094 190.558594 L 62.519531 42.71875 Z M 213.039062 8.253906 " clip-rule="nonzero"/></clipPath><clipPath id="7e7d519b17"><path d="M 134 156 L 158 156 L 158 174 L 134 174 Z M 134 156 " clip-rule="nonzero"/></clipPath><clipPath id="50d3fd5ba0"><path d="M 213.039062 8.253906 L 246.890625 156.09375 L 96.371094 190.558594 L 62.519531 42.71875 Z M 213.039062 8.253906 " clip-rule="nonzero"/></clipPath><clipPath id="d5a16fd51b"><path d="M 213.039062 8.253906 L 246.890625 156.09375 L 96.371094 190.558594 L 62.519531 42.71875 Z M 213.039062 8.253906 " clip-rule="nonzero"/></clipPath><clipPath id="345b2f189c"><path d="M 213.039062 8.253906 L 246.890625 156.09375 L 96.371094 190.558594 L 62.519531 42.71875 Z M 213.039062 8.253906 " clip-rule="nonzero"/></clipPath><clipPath id="76e6b1f386"><path d="M 83 22 L 229 22 L 229 178 L 83 178 Z M 83 22 " clip-rule="nonzero"/></clipPath><clipPath id="6a5ee8d4a0"><path d="M 213.039062 8.253906 L 246.890625 156.09375 L 96.371094 190.558594 L 62.519531 42.71875 Z M 213.039062 8.253906 " clip-rule="nonzero"/></clipPath><clipPath id="ca72b50d0a"><path d="M 213.039062 8.253906 L 246.890625 156.09375 L 96.371094 190.558594 L 62.519531 42.71875 Z M 213.039062 8.253906 " clip-rule="nonzero"/></clipPath><clipPath id="1f3d1b6804"><path d="M 213.039062 8.253906 L 246.890625 156.09375 L 96.371094 190.558594 L 62.519531 42.71875 Z M 213.039062 8.253906 " clip-rule="nonzero"/></clipPath><clipPath id="f71dcc3932"><path d="M 146 98 L 167 98 L 167 118 L 146 118 Z M 146 98 " clip-rule="nonzero"/></clipPath><clipPath id="590dd51de8"><path d="M 213.039062 8.253906 L 246.890625 156.09375 L 96.371094 190.558594 L 62.519531 42.71875 Z M 213.039062 8.253906 " clip-rule="nonzero"/></clipPath><clipPath id="616d0605e4"><path d="M 213.039062 8.253906 L 246.890625 156.09375 L 96.371094 190.558594 L 62.519531 42.71875 Z M 213.039062 8.253906 " clip-rule="nonzero"/></clipPath><clipPath id="34b3cb0740"><path d="M 213.039062 8.253906 L 246.890625 156.09375 L 96.371094 190.558594 L 62.519531 42.71875 Z M 213.039062 8.253906 " clip-rule="nonzero"/></clipPath><clipPath id="5f09760daa"><path d="M 173 139 L 190 139 L 190 156 L 173 156 Z M 173 139 " clip-rule="nonzero"/></clipPath><clipPath id="ba1ae8bbf4"><path d="M 213.039062 8.253906 L 246.890625 156.09375 L 96.371094 190.558594 L 62.519531 42.71875 Z M 213.039062 8.253906 " clip-rule="nonzero"/></clipPath><clipPath id="595b56752d"><path d="M 213.039062 8.253906 L 246.890625 156.09375 L 96.371094 190.558594 L 62.519531 42.71875 Z M 213.039062 8.253906 " clip-rule="nonzero"/></clipPath><clipPath id="263288fab3"><path d="M 213.039062 8.253906 L 246.890625 156.09375 L 96.371094 190.558594 L 62.519531 42.71875 Z M 213.039062 8.253906 " clip-rule="nonzero"/></clipPath><clipPath id="f89a0df1f9"><path d="M 131 43 L 153 43 L 153 67 L 131 67 Z M 131 43 " clip-rule="nonzero"/></clipPath><clipPath id="882080b7f0"><path d="M 213.039062 8.253906 L 246.890625 156.09375 L 96.371094 190.558594 L 62.519531 42.71875 Z M 213.039062 8.253906 " clip-rule="nonzero"/></clipPath><clipPath id="92e34c798e"><path d="M 213.039062 8.253906 L 246.890625 156.09375 L 96.371094 190.558594 L 62.519531 42.71875 Z M 213.039062 8.253906 " clip-rule="nonzero"/></clipPath><clipPath id="1417060640"><path d="M 213.039062 8.253906 L 246.890625 156.09375 L 96.371094 190.558594 L 62.519531 42.71875 Z M 213.039062 8.253906 " clip-rule="nonzero"/></clipPath><clipPath id="5c2028db45"><path d="M 179 121 L 195 121 L 195 138 L 179 138 Z M 179 121 " clip-rule="nonzero"/></clipPath><clipPath id="f8db4c539a"><path d="M 213.039062 8.253906 L 246.890625 156.09375 L 96.371094 190.558594 L 62.519531 42.71875 Z M 213.039062 8.253906 " clip-rule="nonzero"/></clipPath><clipPath id="5372c6bc60"><path d="M 213.039062 8.253906 L 246.890625 156.09375 L 96.371094 190.558594 L 62.519531 42.71875 Z M 213.039062 8.253906 " clip-rule="nonzero"/></clipPath><clipPath id="e0ddcbd417"><path d="M 213.039062 8.253906 L 246.890625 156.09375 L 96.371094 190.558594 L 62.519531 42.71875 Z M 213.039062 8.253906 " clip-rule="nonzero"/></clipPath><clipPath id="3e06a24164"><path d="M 167 88 L 180 88 L 180 100 L 167 100 Z M 167 88 " clip-rule="nonzero"/></clipPath><clipPath id="da0bf38daf"><path d="M 213.039062 8.253906 L 246.890625 156.09375 L 96.371094 190.558594 L 62.519531 42.71875 Z M 213.039062 8.253906 " clip-rule="nonzero"/></clipPath><clipPath id="f12f3ff0e9"><path d="M 213.039062 8.253906 L 246.890625 156.09375 L 96.371094 190.558594 L 62.519531 42.71875 Z M 213.039062 8.253906 " clip-rule="nonzero"/></clipPath><clipPath id="e491f59820"><path d="M 213.039062 8.253906 L 246.890625 156.09375 L 96.371094 190.558594 L 62.519531 42.71875 Z M 213.039062 8.253906 " clip-rule="nonzero"/></clipPath><clipPath id="bac1da3ec2"><path d="M 191 108 L 202 108 L 202 118 L 191 118 Z M 191 108 " clip-rule="nonzero"/></clipPath><clipPath id="63e3d8adbf"><path d="M 213.039062 8.253906 L 246.890625 156.09375 L 96.371094 190.558594 L 62.519531 42.71875 Z M 213.039062 8.253906 " clip-rule="nonzero"/></clipPath><clipPath id="7ea76242a3"><path d="M 213.039062 8.253906 L 246.890625 156.09375 L 96.371094 190.558594 L 62.519531 42.71875 Z M 213.039062 8.253906 " clip-rule="nonzero"/></clipPath><clipPath id="85ca8433ae"><path d="M 213.039062 8.253906 L 246.890625 156.09375 L 96.371094 190.558594 L 62.519531 42.71875 Z M 213.039062 8.253906 " clip-rule="nonzero"/></clipPath><clipPath id="cc67ccf504"><path d="M 147 137 L 160 137 L 160 152 L 147 152 Z M 147 137 " clip-rule="nonzero"/></clipPath><clipPath id="576263da19"><path d="M 213.039062 8.253906 L 246.890625 156.09375 L 96.371094 190.558594 L 62.519531 42.71875 Z M 213.039062 8.253906 " clip-rule="nonzero"/></clipPath><clipPath id="d3f65d5b94"><path d="M 213.039062 8.253906 L 246.890625 156.09375 L 96.371094 190.558594 L 62.519531 42.71875 Z M 213.039062 8.253906 " clip-rule="nonzero"/></clipPath><clipPath id="9e497f1bab"><path d="M 213.039062 8.253906 L 246.890625 156.09375 L 96.371094 190.558594 L 62.519531 42.71875 Z M 213.039062 8.253906 " clip-rule="nonzero"/></clipPath><clipPath id="51fb0bd95e"><path d="M 149 102 L 155 102 L 155 108 L 149 108 Z M 149 102 " clip-rule="nonzero"/></clipPath><clipPath id="a2fbceae4d"><path d="M 213.039062 8.253906 L 246.890625 156.09375 L 96.371094 190.558594 L 62.519531 42.71875 Z M 213.039062 8.253906 " clip-rule="nonzero"/></clipPath><clipPath id="9a636b874b"><path d="M 213.039062 8.253906 L 246.890625 156.09375 L 96.371094 190.558594 L 62.519531 42.71875 Z M 213.039062 8.253906 " clip-rule="nonzero"/></clipPath><clipPath id="1ac525b731"><path d="M 213.039062 8.253906 L 246.890625 156.09375 L 96.371094 190.558594 L 62.519531 42.71875 Z M 213.039062 8.253906 " clip-rule="nonzero"/></clipPath><clipPath id="f43a58055e"><path d="M 181 125 L 187 125 L 187 131 L 181 131 Z M 181 125 " clip-rule="nonzero"/></clipPath><clipPath id="b41b3f84b0"><path d="M 213.039062 8.253906 L 246.890625 156.09375 L 96.371094 190.558594 L 62.519531 42.71875 Z M 213.039062 8.253906 " clip-rule="nonzero"/></clipPath><clipPath id="e727173beb"><path d="M 213.039062 8.253906 L 246.890625 156.09375 L 96.371094 190.558594 L 62.519531 42.71875 Z M 213.039062 8.253906 " clip-rule="nonzero"/></clipPath><clipPath id="b89195e2a2"><path d="M 213.039062 8.253906 L 246.890625 156.09375 L 96.371094 190.558594 L 62.519531 42.71875 Z M 213.039062 8.253906 " clip-rule="nonzero"/></clipPath><clipPath id="9febc9ca0d"><path d="M 180 151 L 190 151 L 190 162 L 180 162 Z M 180 151 " clip-rule="nonzero"/></clipPath><clipPath id="f0178ffe49"><path d="M 213.039062 8.253906 L 246.890625 156.09375 L 96.371094 190.558594 L 62.519531 42.71875 Z M 213.039062 8.253906 " clip-rule="nonzero"/></clipPath><clipPath id="893ecf9cbc"><path d="M 213.039062 8.253906 L 246.890625 156.09375 L 96.371094 190.558594 L 62.519531 42.71875 Z M 213.039062 8.253906 " clip-rule="nonzero"/></clipPath><clipPath id="e3abfeba82"><path d="M 213.039062 8.253906 L 246.890625 156.09375 L 96.371094 190.558594 L 62.519531 42.71875 Z M 213.039062 8.253906 " clip-rule="nonzero"/></clipPath><clipPath id="37c2363f91"><path d="M 118 98 L 143 98 L 143 123 L 118 123 Z M 118 98 " clip-rule="nonzero"/></clipPath><clipPath id="3cd64eea05"><path d="M 213.039062 8.253906 L 246.890625 156.09375 L 96.371094 190.558594 L 62.519531 42.71875 Z M 213.039062 8.253906 " clip-rule="nonzero"/></clipPath><clipPath id="e59a2251f8"><path d="M 213.039062 8.253906 L 246.890625 156.09375 L 96.371094 190.558594 L 62.519531 42.71875 Z M 213.039062 8.253906 " clip-rule="nonzero"/></clipPath><clipPath id="0266f4a3c3"><path d="M 213.039062 8.253906 L 246.890625 156.09375 L 96.371094 190.558594 L 62.519531 42.71875 Z M 213.039062 8.253906 " clip-rule="nonzero"/></clipPath><clipPath id="2d5a032d92"><path d="M 135 47 L 150 47 L 150 64 L 135 64 Z M 135 47 " clip-rule="nonzero"/></clipPath><clipPath id="d31b66afe8"><path d="M 213.039062 8.253906 L 246.890625 156.09375 L 96.371094 190.558594 L 62.519531 42.71875 Z M 213.039062 8.253906 " clip-rule="nonzero"/></clipPath><clipPath id="c0e06f79bf"><path d="M 213.039062 8.253906 L 246.890625 156.09375 L 96.371094 190.558594 L 62.519531 42.71875 Z M 213.039062 8.253906 " clip-rule="nonzero"/></clipPath><clipPath id="375ffba18d"><path d="M 213.039062 8.253906 L 246.890625 156.09375 L 96.371094 190.558594 L 62.519531 42.71875 Z M 213.039062 8.253906 " clip-rule="nonzero"/></clipPath></defs><g clip-path="url(#e887e57245)"><path fill="#38b6ff" d="M 430.617188 20.273438 L 41.066406 20.273438 C 18.667969 20.273438 0.488281 38.453125 0.488281 60.855469 L 0.488281 320.59375 C 0.488281 342.996094 18.667969 361.179688 41.066406 361.179688 L 430.617188 361.179688 C 453.019531 361.179688 471.195312 342.996094 471.195312 320.59375 L 471.195312 60.855469 C 471.195312 38.453125 453.019531 20.273438 430.617188 20.273438 Z M 430.617188 20.273438 " fill-opacity="1" fill-rule="nonzero"/><path fill="#545454" d="M 471.195312 60.855469 C 471.195312 38.453125 453.019531 20.273438 430.617188 20.273438 L 41.066406 20.273438 C 18.667969 20.273438 0.488281 38.453125 0.488281 60.855469 L 0.488281 320.59375 C 0.488281 331.632812 4.953125 341.617188 12.09375 348.921875 C 19.480469 356.472656 29.707031 361.179688 41.066406 361.179688 L 430.617188 361.179688 C 441.980469 361.179688 452.207031 356.472656 459.59375 349.003906 C 466.734375 341.617188 471.195312 331.632812 471.195312 320.59375 Z M 319.191406 174.65625 L 452.207031 49.738281 C 453.910156 53.144531 454.964844 56.878906 454.964844 60.855469 L 454.964844 320.59375 C 454.964844 323.679688 454.316406 326.601562 453.261719 329.359375 Z M 430.617188 36.507812 C 434.109375 36.507812 437.4375 37.238281 440.359375 38.617188 L 302.636719 167.917969 C 302.636719 167.917969 302.636719 167.917969 302.554688 167.917969 C 302.554688 167.917969 302.554688 168 302.472656 168 L 235.84375 230.660156 L 169.132812 168 C 169.132812 168 169.132812 167.917969 169.050781 167.917969 C 169.050781 167.917969 169.050781 167.917969 168.96875 167.917969 L 31.328125 38.617188 C 34.25 37.238281 37.578125 36.507812 41.066406 36.507812 Z M 18.425781 329.359375 C 17.371094 326.601562 16.722656 323.679688 16.722656 320.59375 L 16.722656 60.855469 C 16.722656 56.878906 17.777344 53.144531 19.480469 49.816406 L 152.496094 174.734375 Z M 41.066406 344.945312 C 36.6875 344.945312 32.707031 343.726562 29.136719 341.699219 L 164.34375 185.773438 L 230.242188 247.707031 C 231.785156 249.167969 233.816406 249.898438 235.761719 249.898438 C 237.710938 249.898438 239.738281 249.167969 241.28125 247.707031 L 307.179688 185.773438 L 442.550781 341.699219 C 438.976562 343.726562 435 344.945312 430.617188 344.945312 Z M 41.066406 344.945312 " fill-opacity="1" fill-rule="nonzero"/></g><g clip-path="url(#d780cfc11d)"><g clip-path="url(#35d9e491fc)"><g clip-path="url(#55dec363c7)"><g clip-path="url(#4d031dcd5d)"><path fill="#fdcea8" d="M 153.59375 102.726562 C 153.582031 102.726562 153.566406 102.726562 153.554688 102.726562 C 153.554688 102.726562 153.554688 102.730469 153.554688 102.730469 Z M 153.59375 102.726562 " fill-opacity="1" fill-rule="nonzero"/></g></g></g></g><g clip-path="url(#4b5b89fb1e)"><g clip-path="url(#7174b2aac7)"><g clip-path="url(#f4c1f6399f)"><g clip-path="url(#ae323635a5)"><path fill="#fdcea8" d="M 153.894531 162.308594 C 156.359375 163.671875 158.832031 164.980469 161.753906 165.207031 C 163.476562 165.339844 165.1875 165.453125 166.914062 165.433594 C 171.847656 165.386719 176.273438 163.796875 180.332031 161.078125 C 180.695312 158.714844 181.769531 156.699219 183.320312 154.917969 C 183.582031 154.617188 183.847656 154.316406 184.109375 154.015625 C 182.371094 154.363281 180.667969 154.867188 178.898438 155.074219 C 176.652344 155.335938 174.613281 153.992188 174.183594 151.75 C 173.746094 149.476562 173.652344 147.144531 173.195312 144.871094 C 172.980469 143.800781 173.097656 142.734375 173.300781 141.675781 C 173.390625 141.203125 173.582031 140.773438 173.851562 140.375 C 174.105469 139.992188 174.425781 139.628906 174.863281 139.523438 C 176.019531 139.238281 177.140625 138.996094 178.371094 139.457031 C 182.171875 140.886719 185.4375 143.039062 188.078125 146.125 C 189.058594 147.269531 189.863281 148.472656 189.734375 150.074219 C 189.566406 150.480469 189.398438 150.878906 189.230469 151.285156 C 189.28125 151.289062 189.332031 151.296875 189.386719 151.300781 C 189.675781 150.929688 189.855469 150.507812 189.988281 150.058594 C 190.839844 148.542969 191.390625 146.910156 191.757812 145.226562 C 192.4375 142.113281 193.511719 139.132812 194.734375 136.199219 C 197.144531 130.410156 199.691406 124.679688 202.246094 118.953125 C 202.964844 117.34375 203.523438 115.644531 204.753906 114.289062 C 206.199219 112.695312 207.582031 111.050781 208.964844 109.402344 C 213.179688 104.382812 217.292969 99.292969 220.265625 93.390625 C 221.78125 90.375 223.324219 87.378906 224.40625 84.167969 C 224.613281 83.558594 224.65625 82.957031 224.484375 82.328125 C 224.121094 80.988281 223.167969 80.53125 221.867188 80.40625 C 217.898438 80.027344 213.921875 79.996094 209.957031 80.265625 C 202.917969 80.742188 195.960938 81.910156 188.984375 82.910156 C 188.894531 82.925781 188.777344 82.933594 188.773438 83.085938 C 188.804688 83.296875 189 83.394531 189.128906 83.539062 C 191.152344 85.75 193.222656 87.929688 194.902344 90.417969 C 197.855469 94.796875 200.28125 99.472656 202.421875 104.292969 C 203.019531 105.640625 203.601562 106.996094 204.132812 108.367188 C 204.457031 109.214844 204.140625 109.953125 203.429688 110.269531 C 202.742188 110.578125 201.992188 110.261719 201.554688 109.476562 C 201.503906 109.390625 201.460938 109.300781 201.421875 109.207031 C 200.96875 108.152344 200.507812 107.101562 200.058594 106.042969 C 198.199219 101.640625 195.972656 97.421875 193.449219 93.371094 C 191.21875 89.792969 188.382812 86.683594 185.34375 83.78125 C 181.480469 80.09375 177.605469 76.394531 172.921875 73.699219 C 170.019531 72.027344 167.128906 70.339844 164.21875 68.679688 C 163.128906 68.058594 162.542969 67.148438 162.445312 65.90625 C 162.414062 65.535156 162.371094 65.164062 162.34375 64.789062 C 161.578125 54.882812 160.808594 44.980469 160.042969 35.074219 C 159.921875 33.503906 159.671875 31.957031 159.210938 30.441406 C 158.285156 27.398438 155.523438 25.925781 152.539062 26.941406 C 151.785156 27.195312 151.050781 27.523438 150.332031 27.867188 C 146.429688 29.738281 143.152344 32.476562 139.988281 35.363281 C 136.175781 38.851562 132.648438 42.59375 129.980469 47.054688 C 127.617188 51.011719 125.703125 55.191406 123.929688 59.4375 C 123.15625 61.296875 122.53125 63.214844 121.199219 64.824219 C 118.917969 67.578125 116.777344 70.441406 114.738281 73.378906 C 112.222656 77 110.007812 80.792969 108.359375 84.894531 C 106.566406 89.355469 106.144531 94.039062 106.113281 98.789062 C 106.101562 100.558594 105.847656 102.359375 106.105469 104.089844 C 106.699219 108.023438 107.761719 111.867188 109.300781 115.539062 C 111.824219 121.5625 114.761719 127.328125 119.191406 132.269531 C 122.570312 136.042969 125.605469 140.121094 129.304688 143.613281 C 132.5625 146.683594 136.019531 149.523438 139.539062 152.285156 C 140.28125 152.867188 140.65625 153.734375 141.40625 154.304688 C 145.355469 157.308594 149.558594 159.910156 153.894531 162.308594 Z M 146.460938 66.667969 C 144.601562 66.175781 142.765625 65.589844 140.90625 65.09375 C 138.757812 64.523438 136.644531 63.835938 134.53125 63.144531 C 131.667969 62.203125 131.0625 60.566406 132.902344 58.210938 C 136.914062 53.058594 141.445312 48.433594 147.046875 44.96875 C 147.8125 44.496094 148.613281 44.082031 149.457031 43.765625 C 150.574219 43.347656 151.386719 43.824219 151.582031 44.992188 C 151.648438 45.410156 151.746094 45.824219 151.824219 46.238281 C 151.894531 46.632812 151.949219 47.027344 152.015625 47.421875 C 153 52.421875 152.582031 57.351562 151.226562 62.226562 C 150.929688 63.289062 150.488281 64.300781 149.917969 65.242188 C 149.007812 66.746094 148.152344 67.117188 146.460938 66.667969 Z M 165.617188 105.601562 C 162.574219 110.175781 158.765625 113.980469 153.945312 116.699219 C 152.140625 117.714844 150.394531 117.601562 148.777344 116.296875 C 147.15625 114.992188 146.460938 113.328125 147.015625 111.253906 C 147.195312 110.578125 147.394531 109.910156 147.601562 109.242188 C 147.929688 108.167969 148.566406 107.335938 149.578125 106.8125 C 149.558594 106.355469 149.914062 106.121094 150.160156 105.820312 C 150.984375 104.792969 151.988281 103.945312 152.949219 103.054688 C 153.121094 102.894531 153.304688 102.734375 153.558594 102.726562 C 153.617188 102.664062 153.675781 102.597656 153.730469 102.535156 C 155.832031 100.132812 158.125 98.078125 161.589844 98.109375 C 164.523438 98.132812 168.140625 101.800781 165.617188 105.601562 Z M 171.382812 88.203125 C 174.714844 88.417969 177.085938 90.167969 178.578125 93.085938 C 178.953125 93.820312 179.164062 94.671875 179.253906 95.523438 C 179.488281 97.726562 177.695312 99.589844 175.292969 99.628906 C 173.730469 99.652344 172.335938 99.082031 171.101562 98.210938 C 169.234375 96.890625 167.933594 95.132812 167.480469 93.449219 C 166.699219 89.679688 168.117188 87.992188 171.382812 88.203125 Z M 118.949219 113.785156 C 117 106.746094 121.335938 100.582031 127.042969 99.015625 C 134.230469 97.042969 140.613281 101.421875 142.042969 107.878906 C 143.496094 114.4375 139.3125 120.664062 133.046875 122.046875 C 126.671875 123.570312 120.519531 119.464844 118.949219 113.785156 Z M 196.78125 117.097656 C 194.757812 116.578125 193.246094 115.421875 192.253906 113.589844 C 192.0625 113.238281 191.902344 112.875 191.855469 112.527344 C 191.21875 109.789062 193.160156 107.652344 195.851562 108.207031 C 198.386719 108.726562 200.257812 110.195312 201.054688 112.726562 C 201.46875 114.035156 201.011719 115.269531 200.078125 116.234375 C 199.191406 117.160156 198.058594 117.429688 196.78125 117.097656 Z M 184.390625 125.976562 C 185.039062 124.253906 186.449219 123.261719 187.945312 122.390625 C 189.027344 121.761719 190.15625 121.21875 191.472656 121.273438 C 193.433594 121.355469 194.726562 122.625 194.816406 124.59375 C 194.875 125.941406 194.496094 127.191406 193.796875 128.296875 C 191.722656 131.5625 189.308594 134.539062 186.160156 136.855469 C 185.574219 137.289062 184.941406 137.644531 184.207031 137.757812 C 182.644531 138 181.21875 137.726562 180.25 136.386719 C 179.234375 134.988281 178.96875 133.402344 179.679688 131.78125 C 180.074219 130.878906 180.503906 129.9375 181.578125 129.589844 C 182.0625 128.03125 183.0625 126.878906 184.390625 125.976562 Z M 157.464844 151.863281 C 155.917969 151.703125 154.523438 151.125 153.242188 150.257812 C 150.773438 148.589844 148.761719 145.574219 148.175781 142.65625 C 147.984375 141.699219 147.871094 140.734375 147.824219 139.761719 C 147.765625 138.546875 148.242188 137.832031 149.136719 137.773438 C 150.03125 137.710938 150.585938 138.367188 150.652344 139.585938 C 150.769531 141.742188 151.230469 143.773438 152.523438 145.566406 C 153.8125 147.351562 155.402344 148.660156 157.644531 149.03125 C 158.011719 149.089844 158.386719 149.164062 158.679688 149.429688 C 159.171875 149.878906 159.355469 150.417969 159.078125 151.046875 C 158.765625 151.746094 158.160156 151.933594 157.464844 151.863281 Z M 157.464844 151.863281 " fill-opacity="1" fill-rule="nonzero"/></g></g></g></g><g clip-path="url(#225f3b714a)"><g clip-path="url(#3b7f2ddd2a)"><g clip-path="url(#4fdb7d1783)"><g clip-path="url(#784eaa6c8f)"><path fill="#fdcea8" d="M 106.386719 140.496094 C 106.535156 139.59375 106.96875 138.855469 107.453125 138.125 C 108.375 136.726562 109.28125 135.320312 110.222656 133.933594 C 111.101562 132.628906 111.859375 131.230469 112.972656 130.105469 C 113.363281 129.703125 113.351562 129.503906 113.078125 129.066406 C 109.207031 122.925781 106.046875 116.46875 104.296875 109.382812 C 104.058594 108.335938 103.804688 107.292969 103.582031 106.242188 C 103.5 105.851562 103.363281 105.75 102.980469 105.925781 C 102.34375 106.21875 101.679688 106.449219 101.039062 106.726562 C 96.714844 108.601562 92.78125 110.976562 89.988281 114.925781 C 88.464844 117.074219 87.382812 119.355469 87.367188 122.042969 C 87.355469 124.445312 87.585938 126.832031 87.859375 129.214844 C 87.898438 129.570312 88.019531 129.851562 88.3125 130.109375 C 89.097656 130.8125 89.261719 131.648438 88.890625 132.625 C 88.140625 134.574219 88.574219 135.960938 90.300781 137.144531 C 90.800781 137.488281 91.363281 137.714844 91.929688 137.898438 C 92.679688 138.144531 93.410156 137.628906 93.730469 136.628906 C 93.980469 135.84375 94.136719 135.027344 94.394531 134.246094 C 94.652344 133.457031 95.390625 133.054688 96.09375 133.242188 C 96.804688 133.433594 97.226562 134.128906 97.105469 134.941406 C 97.058594 135.238281 96.976562 135.527344 96.898438 135.816406 C 96.632812 136.8125 96.394531 137.738281 96.824219 138.832031 C 97.328125 140.121094 98.15625 140.902344 99.558594 140.800781 C 99.917969 140.773438 100.207031 140.632812 100.472656 140.355469 C 101.375 139.40625 102.144531 138.402344 102.5625 137.121094 C 102.867188 136.191406 103.6875 135.835938 104.445312 136.132812 C 105.203125 136.433594 105.523438 137.226562 105.171875 138.148438 C 104.851562 138.984375 104.601562 139.859375 104.066406 140.601562 C 103.777344 140.996094 103.855469 141.308594 104.289062 141.5 C 105.042969 141.828125 106.257812 141.28125 106.386719 140.496094 Z M 106.386719 140.496094 " fill-opacity="1" fill-rule="nonzero"/></g></g></g></g><g clip-path="url(#7e7d519b17)"><g clip-path="url(#50d3fd5ba0)"><g clip-path="url(#d5a16fd51b)"><g clip-path="url(#345b2f189c)"><path fill="#fdcea8" d="M 155.890625 170.449219 C 156.808594 169.660156 157.011719 168.605469 157.015625 167.472656 C 157.019531 167.15625 156.867188 166.984375 156.585938 166.847656 C 150.785156 164.046875 145.289062 160.75 140.132812 156.882812 C 139.902344 156.707031 139.695312 156.597656 139.386719 156.738281 C 138.382812 157.191406 137.367188 157.605469 136.417969 158.167969 C 135.4375 158.746094 134.84375 159.59375 134.613281 160.890625 C 136.015625 160.164062 137.332031 159.652344 138.789062 159.625 C 139.511719 159.613281 140.144531 159.78125 140.441406 160.519531 C 140.820312 161.472656 140.179688 162.367188 139.007812 162.449219 C 137.929688 162.523438 136.941406 162.816406 136.042969 163.398438 C 135.550781 163.71875 135.414062 164.109375 135.769531 164.660156 C 136.246094 165.390625 136.703125 166.136719 137.246094 166.824219 C 138.046875 167.84375 138.039062 167.839844 139.101562 167.136719 C 140.082031 166.492188 141.058594 165.835938 142.0625 165.234375 C 142.808594 164.789062 143.601562 164.953125 144.007812 165.550781 C 144.464844 166.230469 144.300781 167.019531 143.578125 167.59375 C 143.421875 167.714844 143.25 167.816406 143.082031 167.925781 C 142.3125 168.4375 141.554688 168.96875 140.765625 169.453125 C 140.347656 169.707031 140.363281 169.847656 140.753906 170.113281 C 142.914062 171.589844 145.265625 172.539062 147.863281 172.9375 C 150.960938 173.40625 153.574219 172.441406 155.890625 170.449219 Z M 155.890625 170.449219 " fill-opacity="1" fill-rule="nonzero"/></g></g></g></g><g clip-path="url(#76e6b1f386)"><g clip-path="url(#6a5ee8d4a0)"><g clip-path="url(#ca72b50d0a)"><g clip-path="url(#1f3d1b6804)"><path fill="#411f19" d="M 173.488281 168.960938 C 169.296875 169.75 165.496094 170.023438 161.664062 169.511719 C 161.378906 169.476562 161.128906 169.417969 161.050781 169.820312 C 160.535156 172.5 158.601562 174.019531 156.460938 175.355469 C 152.824219 177.628906 148.90625 177.835938 144.898438 176.714844 C 138.476562 174.921875 133.847656 170.949219 131.082031 164.882812 C 129.25 160.855469 130.527344 156.757812 134.253906 154.46875 C 134.789062 154.140625 134.761719 153.996094 134.296875 153.617188 C 130.632812 150.636719 127.003906 147.613281 123.757812 144.171875 C 120.976562 141.226562 118.421875 138.085938 115.859375 134.957031 C 115.226562 134.183594 115.21875 134.183594 114.644531 135.050781 C 113.585938 136.65625 112.523438 138.261719 111.460938 139.867188 C 111.0625 140.472656 110.75 141.09375 110.542969 141.8125 C 109.484375 145.496094 105.023438 147.085938 101.804688 144.960938 C 101.585938 144.8125 101.410156 144.835938 101.183594 144.886719 C 98.332031 145.515625 95.886719 144.792969 93.898438 142.652344 C 93.597656 142.324219 93.355469 142.195312 92.890625 142.246094 C 90.8125 142.484375 89.050781 141.597656 87.488281 140.410156 C 85.265625 138.722656 84.054688 136.511719 84.128906 133.578125 C 84.164062 132.113281 83.667969 130.632812 83.511719 129.144531 C 83.269531 126.835938 83.066406 124.523438 83.054688 122.199219 C 83.039062 118.125 84.695312 114.71875 87.136719 111.570312 C 90.464844 107.273438 94.925781 104.617188 99.832031 102.570312 C 101.78125 101.757812 101.789062 101.792969 101.789062 99.722656 C 101.796875 94.429688 102.167969 89.191406 104.023438 84.160156 C 105.574219 79.960938 107.777344 76.101562 110.21875 72.371094 C 112.578125 68.773438 115.234375 65.386719 117.910156 62.023438 C 118.679688 61.050781 119.0625 59.929688 119.519531 58.824219 C 121.714844 53.507812 124.050781 48.257812 127.195312 43.414062 C 130.046875 39.019531 133.660156 35.285156 137.523438 31.789062 C 141.1875 28.472656 145.050781 25.433594 149.628906 23.4375 C 151.761719 22.507812 153.964844 21.777344 156.316406 22.4375 C 159.910156 23.445312 162.253906 25.789062 163.386719 29.34375 C 164.230469 31.992188 164.355469 34.746094 164.570312 37.480469 C 165.265625 46.320312 165.9375 55.160156 166.578125 64 C 166.640625 64.839844 166.9375 65.308594 167.683594 65.71875 C 171.164062 67.636719 174.636719 69.574219 177.929688 71.804688 C 180.816406 73.753906 183.402344 76.078125 185.957031 78.433594 C 186.367188 78.8125 186.738281 78.925781 187.289062 78.84375 C 194.230469 77.78125 201.175781 76.691406 208.175781 76.085938 C 212.886719 75.679688 217.605469 75.808594 222.328125 76.113281 C 227.988281 76.476562 229.894531 82.160156 228.414062 85.910156 C 226.96875 89.566406 225.28125 93.097656 223.453125 96.574219 C 220.378906 102.417969 216.210938 107.46875 212.003906 112.492188 C 210.6875 114.0625 209.316406 115.585938 207.996094 117.15625 C 207.074219 118.246094 206.691406 119.625 206.121094 120.894531 C 203.34375 127.066406 200.597656 133.257812 198.035156 139.527344 C 197.074219 141.871094 196.488281 144.324219 195.804688 146.753906 C 194.367188 151.863281 192.21875 156.65625 188.320312 160.394531 C 183.992188 164.542969 178.878906 167.417969 173.488281 168.960938 Z M 189.382812 151.304688 C 189.671875 150.933594 189.851562 150.507812 189.984375 150.0625 C 190.835938 148.546875 191.386719 146.914062 191.753906 145.230469 C 192.433594 142.113281 193.507812 139.136719 194.730469 136.203125 C 197.140625 130.414062 199.6875 124.683594 202.242188 118.953125 C 202.960938 117.34375 203.519531 115.648438 204.75 114.292969 C 206.191406 112.699219 207.578125 111.054688 208.957031 109.40625 C 213.175781 104.386719 217.289062 99.296875 220.257812 93.394531 C 221.777344 90.378906 223.320312 87.378906 224.402344 84.171875 C 224.609375 83.5625 224.652344 82.957031 224.480469 82.332031 C 224.117188 80.992188 223.164062 80.535156 221.863281 80.40625 C 217.894531 80.027344 213.917969 80 209.953125 80.269531 C 202.914062 80.746094 195.957031 81.914062 188.980469 82.914062 C 188.890625 82.925781 188.773438 82.9375 188.769531 83.085938 C 188.800781 83.300781 188.996094 83.398438 189.125 83.539062 C 191.148438 85.753906 193.21875 87.933594 194.898438 90.421875 C 197.851562 94.800781 200.277344 99.472656 202.417969 104.296875 C 203.015625 105.640625 203.597656 106.996094 204.128906 108.371094 C 204.453125 109.21875 204.136719 109.953125 203.425781 110.273438 C 202.738281 110.582031 201.988281 110.265625 201.550781 109.480469 C 201.5 109.394531 201.457031 109.300781 201.417969 109.210938 C 200.964844 108.15625 200.503906 107.101562 200.054688 106.046875 C 198.195312 101.644531 195.96875 97.425781 193.445312 93.375 C 191.214844 89.796875 188.378906 86.683594 185.339844 83.785156 C 181.476562 80.09375 177.601562 76.398438 172.917969 73.703125 C 170.015625 72.03125 167.125 70.34375 164.214844 68.683594 C 163.121094 68.0625 162.539062 67.152344 162.4375 65.910156 C 162.410156 65.539062 162.367188 65.164062 162.339844 64.792969 C 161.574219 54.886719 160.804688 44.984375 160.039062 35.078125 C 159.917969 33.503906 159.667969 31.957031 159.207031 30.441406 C 158.28125 27.402344 155.519531 25.929688 152.535156 26.941406 C 151.78125 27.199219 151.046875 27.527344 150.328125 27.871094 C 146.425781 29.742188 143.148438 32.476562 139.984375 35.367188 C 136.171875 38.855469 132.644531 42.59375 129.976562 47.058594 C 127.613281 51.015625 125.695312 55.191406 123.925781 59.441406 C 123.152344 61.300781 122.527344 63.214844 121.195312 64.824219 C 118.914062 67.578125 116.773438 70.445312 114.734375 73.378906 C 112.21875 77.003906 110.003906 80.796875 108.355469 84.898438 C 106.5625 89.355469 106.140625 94.042969 106.109375 98.792969 C 106.097656 100.558594 105.84375 102.363281 106.101562 104.089844 C 106.695312 108.023438 107.757812 111.867188 109.296875 115.539062 C 111.820312 121.5625 114.757812 127.332031 119.1875 132.273438 C 122.566406 136.046875 125.601562 140.125 129.300781 143.613281 C 132.558594 146.683594 136.015625 149.527344 139.535156 152.285156 C 140.277344 152.871094 140.652344 153.734375 141.402344 154.304688 C 145.355469 157.304688 149.5625 159.910156 153.894531 162.304688 C 156.359375 163.667969 158.835938 164.976562 161.757812 165.203125 C 163.480469 165.335938 165.191406 165.449219 166.917969 165.429688 C 171.851562 165.382812 176.273438 163.792969 180.335938 161.074219 C 181.179688 160.6875 181.902344 160.105469 182.648438 159.574219 C 185.644531 157.4375 187.980469 154.746094 189.382812 151.304688 Z M 104.292969 109.382812 C 104.054688 108.335938 103.804688 107.292969 103.582031 106.242188 C 103.496094 105.851562 103.363281 105.75 102.976562 105.929688 C 102.34375 106.21875 101.679688 106.449219 101.035156 106.726562 C 96.714844 108.601562 92.777344 110.976562 89.984375 114.925781 C 88.460938 117.074219 87.378906 119.355469 87.363281 122.046875 C 87.351562 124.445312 87.585938 126.832031 87.855469 129.214844 C 87.898438 129.570312 88.019531 129.851562 88.308594 130.113281 C 89.09375 130.816406 89.261719 131.648438 88.886719 132.628906 C 88.140625 134.578125 88.570312 135.960938 90.296875 137.148438 C 90.796875 137.488281 91.359375 137.714844 91.925781 137.898438 C 92.675781 138.144531 93.410156 137.628906 93.730469 136.628906 C 93.980469 135.84375 94.132812 135.027344 94.390625 134.246094 C 94.652344 133.457031 95.386719 133.058594 96.089844 133.242188 C 96.800781 133.433594 97.222656 134.128906 97.101562 134.941406 C 97.054688 135.238281 96.976562 135.527344 96.898438 135.816406 C 96.628906 136.8125 96.394531 137.738281 96.820312 138.832031 C 97.324219 140.121094 98.152344 140.90625 99.558594 140.800781 C 99.914062 140.773438 100.203125 140.632812 100.46875 140.355469 C 101.371094 139.40625 102.140625 138.402344 102.558594 137.125 C 102.863281 136.191406 103.6875 135.835938 104.441406 136.132812 C 105.203125 136.433594 105.519531 137.226562 105.167969 138.148438 C 104.847656 138.984375 104.601562 139.859375 104.0625 140.601562 C 103.773438 140.996094 103.851562 141.3125 104.289062 141.5 C 105.039062 141.828125 106.257812 141.28125 106.386719 140.496094 C 106.53125 139.59375 106.964844 138.859375 107.449219 138.125 C 108.371094 136.730469 109.28125 135.320312 110.21875 133.933594 C 111.101562 132.632812 111.859375 131.230469 112.96875 130.105469 C 113.363281 129.707031 113.347656 129.503906 113.074219 129.066406 C 109.207031 122.925781 106.042969 116.46875 104.292969 109.382812 Z M 134.613281 160.890625 C 136.015625 160.164062 137.332031 159.652344 138.789062 159.625 C 139.511719 159.613281 140.144531 159.78125 140.441406 160.519531 C 140.820312 161.472656 140.179688 162.367188 139.007812 162.449219 C 137.929688 162.523438 136.941406 162.816406 136.042969 163.398438 C 135.550781 163.71875 135.414062 164.109375 135.769531 164.660156 C 136.246094 165.390625 136.703125 166.136719 137.246094 166.824219 C 138.046875 167.84375 138.039062 167.839844 139.101562 167.136719 C 140.082031 166.492188 141.058594 165.835938 142.0625 165.234375 C 142.808594 164.789062 143.601562 164.953125 144.007812 165.550781 C 144.464844 166.230469 144.300781 167.019531 143.578125 167.59375 C 143.421875 167.714844 143.25 167.816406 143.082031 167.925781 C 142.3125 168.4375 141.554688 168.96875 140.765625 169.453125 C 140.347656 169.707031 140.363281 169.847656 140.753906 170.113281 C 142.914062 171.589844 145.265625 172.539062 147.863281 172.9375 C 150.960938 173.40625 153.574219 172.441406 155.890625 170.453125 C 156.808594 169.660156 157.011719 168.609375 157.019531 167.476562 C 157.019531 167.160156 156.867188 166.984375 156.589844 166.851562 C 150.785156 164.050781 145.289062 160.75 140.132812 156.882812 C 139.902344 156.707031 139.695312 156.601562 139.386719 156.738281 C 138.382812 157.191406 137.367188 157.609375 136.417969 158.171875 C 135.4375 158.746094 134.84375 159.59375 134.613281 160.890625 Z M 134.613281 160.890625 " fill-opacity="1" fill-rule="nonzero"/></g></g></g></g><g clip-path="url(#f71dcc3932)"><g clip-path="url(#590dd51de8)"><g clip-path="url(#616d0605e4)"><g clip-path="url(#34b3cb0740)"><path fill="#401e18" d="M 153.730469 102.53125 C 155.828125 100.132812 158.121094 98.074219 161.585938 98.105469 C 164.523438 98.132812 168.140625 101.800781 165.617188 105.601562 C 162.574219 110.175781 158.765625 113.976562 153.945312 116.695312 C 152.140625 117.710938 150.394531 117.601562 148.777344 116.296875 C 147.15625 114.988281 146.460938 113.328125 147.011719 111.253906 C 147.191406 110.578125 147.394531 109.910156 147.601562 109.242188 C 147.929688 108.164062 148.566406 107.335938 149.578125 106.808594 C 150.96875 106.511719 152.230469 107.023438 153.503906 107.4375 C 154.625 107.796875 154.652344 107.808594 154.515625 106.625 C 154.394531 105.578125 154.542969 104.457031 153.882812 103.535156 C 153.691406 103.269531 153.636719 103.015625 153.59375 102.722656 C 153.59375 102.722656 153.558594 102.730469 153.558594 102.730469 C 153.660156 102.707031 153.730469 102.652344 153.730469 102.53125 Z M 153.730469 102.53125 " fill-opacity="1" fill-rule="nonzero"/></g></g></g></g><g clip-path="url(#5f09760daa)"><g clip-path="url(#ba1ae8bbf4)"><g clip-path="url(#595b56752d)"><g clip-path="url(#263288fab3)"><path fill="#401e18" d="M 189.730469 150.078125 C 189.5625 150.484375 189.394531 150.882812 189.226562 151.289062 C 187.796875 152.714844 185.964844 153.386719 184.109375 154.019531 C 182.371094 154.363281 180.667969 154.871094 178.898438 155.074219 C 176.648438 155.335938 174.609375 153.992188 174.179688 151.753906 C 173.742188 149.480469 173.652344 147.148438 173.195312 144.871094 C 172.976562 143.800781 173.097656 142.738281 173.300781 141.679688 C 173.390625 141.207031 173.582031 140.773438 173.851562 140.375 C 174.105469 139.992188 174.425781 139.632812 174.863281 139.523438 C 176.019531 139.238281 177.136719 138.996094 178.371094 139.457031 C 182.167969 140.886719 185.433594 143.039062 188.078125 146.125 C 189.054688 147.269531 189.863281 148.476562 189.730469 150.078125 Z M 189.730469 150.078125 " fill-opacity="1" fill-rule="nonzero"/></g></g></g></g><g clip-path="url(#f89a0df1f9)"><g clip-path="url(#882080b7f0)"><g clip-path="url(#92e34c798e)"><g clip-path="url(#1417060640)"><path fill="#411f19" d="M 152.015625 47.421875 C 153 52.421875 152.582031 57.351562 151.226562 62.226562 C 150.929688 63.289062 150.488281 64.300781 149.917969 65.246094 C 149.007812 66.746094 148.152344 67.117188 146.460938 66.667969 C 144.601562 66.175781 142.765625 65.589844 140.90625 65.09375 C 138.757812 64.523438 136.644531 63.835938 134.53125 63.144531 C 131.667969 62.203125 131.0625 60.566406 132.902344 58.210938 C 136.914062 53.058594 141.445312 48.433594 147.046875 44.96875 C 147.8125 44.496094 148.613281 44.082031 149.457031 43.765625 C 150.574219 43.347656 151.386719 43.824219 151.582031 44.992188 C 151.648438 45.410156 151.746094 45.824219 151.824219 46.238281 C 151.890625 46.632812 151.949219 47.027344 152.015625 47.421875 Z M 149.332031 48.492188 C 149.296875 48.339844 149.238281 48.125 149.195312 47.902344 C 149.046875 47.074219 149.046875 47.074219 148.359375 47.5 C 144.589844 49.839844 141.363281 52.804688 138.40625 56.082031 C 137.316406 57.285156 136.210938 58.476562 135.238281 59.777344 C 134.980469 60.121094 134.96875 60.304688 135.4375 60.464844 C 139.171875 61.753906 143.019531 62.652344 146.785156 63.839844 C 147.265625 63.992188 147.511719 63.828125 147.71875 63.390625 C 148.351562 62.050781 148.785156 60.652344 149.058594 59.195312 C 149.714844 55.664062 150.007812 52.128906 149.332031 48.492188 Z M 149.332031 48.492188 " fill-opacity="1" fill-rule="nonzero"/></g></g></g></g><g clip-path="url(#5c2028db45)"><g clip-path="url(#f8db4c539a)"><g clip-path="url(#5372c6bc60)"><g clip-path="url(#e0ddcbd417)"><path fill="#401e18" d="M 184.390625 125.976562 C 185.039062 124.253906 186.449219 123.261719 187.945312 122.390625 C 189.027344 121.761719 190.15625 121.21875 191.472656 121.273438 C 193.433594 121.355469 194.726562 122.625 194.816406 124.59375 C 194.875 125.941406 194.496094 127.191406 193.796875 128.296875 C 191.722656 131.5625 189.308594 134.539062 186.160156 136.855469 C 185.574219 137.289062 184.941406 137.644531 184.207031 137.757812 C 182.644531 138 181.21875 137.726562 180.25 136.386719 C 179.234375 134.988281 178.96875 133.402344 179.679688 131.78125 C 180.074219 130.878906 180.503906 129.9375 181.578125 129.589844 C 182.648438 129.75 183.648438 130.269531 184.761719 130.1875 C 185.292969 130.148438 186.027344 130.53125 186.296875 130.113281 C 186.507812 129.789062 185.871094 129.253906 185.621094 128.804688 C 185.125 127.902344 184.355469 127.113281 184.390625 125.976562 Z M 184.390625 125.976562 " fill-opacity="1" fill-rule="nonzero"/></g></g></g></g><g clip-path="url(#3e06a24164)"><g clip-path="url(#da0bf38daf)"><g clip-path="url(#f12f3ff0e9)"><g clip-path="url(#e491f59820)"><path fill="#401e18" d="M 167.480469 93.449219 C 166.699219 89.679688 168.117188 87.992188 171.382812 88.203125 C 174.714844 88.417969 177.085938 90.167969 178.578125 93.085938 C 178.953125 93.820312 179.164062 94.671875 179.253906 95.523438 C 179.488281 97.726562 177.695312 99.589844 175.292969 99.628906 C 173.730469 99.652344 172.335938 99.082031 171.101562 98.210938 C 169.234375 96.890625 167.933594 95.132812 167.480469 93.449219 Z M 167.480469 93.449219 " fill-opacity="1" fill-rule="nonzero"/></g></g></g></g><g clip-path="url(#bac1da3ec2)"><g clip-path="url(#63e3d8adbf)"><g clip-path="url(#7ea76242a3)"><g clip-path="url(#85ca8433ae)"><path fill="#411f19" d="M 191.859375 112.527344 C 191.222656 109.789062 193.164062 107.652344 195.855469 108.207031 C 198.390625 108.726562 200.257812 110.195312 201.058594 112.726562 C 201.472656 114.035156 201.011719 115.269531 200.082031 116.234375 C 199.191406 117.160156 198.0625 117.429688 196.785156 117.097656 C 194.761719 116.574219 193.25 115.421875 192.253906 113.589844 C 192.0625 113.238281 191.902344 112.875 191.859375 112.527344 Z M 191.859375 112.527344 " fill-opacity="1" fill-rule="nonzero"/></g></g></g></g><g clip-path="url(#cc67ccf504)"><g clip-path="url(#576263da19)"><g clip-path="url(#d3f65d5b94)"><g clip-path="url(#9e497f1bab)"><path fill="#411f19" d="M 148.175781 142.65625 C 147.984375 141.699219 147.871094 140.734375 147.824219 139.761719 C 147.765625 138.546875 148.242188 137.832031 149.136719 137.773438 C 150.03125 137.710938 150.585938 138.367188 150.652344 139.585938 C 150.769531 141.742188 151.230469 143.773438 152.523438 145.566406 C 153.8125 147.351562 155.402344 148.660156 157.644531 149.03125 C 158.011719 149.089844 158.386719 149.164062 158.679688 149.429688 C 159.171875 149.878906 159.355469 150.417969 159.078125 151.046875 C 158.765625 151.746094 158.160156 151.933594 157.464844 151.863281 C 155.917969 151.703125 154.523438 151.125 153.242188 150.257812 C 150.773438 148.589844 148.761719 145.574219 148.175781 142.65625 Z M 148.175781 142.65625 " fill-opacity="1" fill-rule="nonzero"/></g></g></g></g><g clip-path="url(#51fb0bd95e)"><g clip-path="url(#a2fbceae4d)"><g clip-path="url(#9a636b874b)"><g clip-path="url(#1ac525b731)"><path fill="#fefefe" d="M 154.515625 106.625 C 154.394531 105.578125 154.539062 104.460938 153.878906 103.535156 C 153.691406 103.269531 153.632812 103.015625 153.59375 102.726562 C 153.582031 102.722656 153.574219 102.726562 153.5625 102.726562 C 153.664062 102.703125 153.730469 102.648438 153.730469 102.53125 C 153.671875 102.597656 153.613281 102.660156 153.554688 102.726562 C 153.300781 102.734375 153.117188 102.894531 152.949219 103.054688 C 151.988281 103.945312 150.984375 104.792969 150.15625 105.820312 C 149.914062 106.121094 149.558594 106.355469 149.574219 106.8125 C 150.964844 106.511719 152.226562 107.027344 153.5 107.4375 C 154.621094 107.800781 154.648438 107.8125 154.515625 106.625 Z M 154.515625 106.625 " fill-opacity="1" fill-rule="nonzero"/></g></g></g></g><g clip-path="url(#f43a58055e)"><g clip-path="url(#b41b3f84b0)"><g clip-path="url(#e727173beb)"><g clip-path="url(#b89195e2a2)"><path fill="#fefefe" d="M 186.300781 130.113281 C 186.511719 129.789062 185.875 129.253906 185.625 128.804688 C 185.125 127.902344 184.355469 127.113281 184.390625 125.976562 C 183.0625 126.878906 182.0625 128.035156 181.582031 129.589844 C 182.652344 129.753906 183.652344 130.269531 184.765625 130.1875 C 185.296875 130.148438 186.03125 130.53125 186.300781 130.113281 Z M 186.300781 130.113281 " fill-opacity="1" fill-rule="nonzero"/></g></g></g></g><g clip-path="url(#9febc9ca0d)"><g clip-path="url(#f0178ffe49)"><g clip-path="url(#893ecf9cbc)"><g clip-path="url(#e3abfeba82)"><path fill="#f54c5f" d="M 180.332031 161.078125 C 180.695312 158.714844 181.769531 156.699219 183.320312 154.917969 C 183.582031 154.617188 183.847656 154.316406 184.109375 154.019531 C 185.964844 153.386719 187.796875 152.714844 189.226562 151.285156 C 189.277344 151.289062 189.332031 151.296875 189.382812 151.300781 C 187.980469 154.746094 185.644531 157.433594 182.644531 159.578125 C 181.898438 160.109375 181.179688 160.695312 180.332031 161.078125 Z M 180.332031 161.078125 " fill-opacity="1" fill-rule="nonzero"/></g></g></g></g><g clip-path="url(#37c2363f91)"><g clip-path="url(#3cd64eea05)"><g clip-path="url(#e59a2251f8)"><g clip-path="url(#0266f4a3c3)"><path fill="#f54c5f" d="M 133.046875 122.042969 C 126.671875 123.570312 120.519531 119.464844 118.945312 113.78125 C 117 106.746094 121.335938 100.582031 127.042969 99.015625 C 134.230469 97.039062 140.613281 101.421875 142.042969 107.878906 C 143.496094 114.4375 139.3125 120.660156 133.046875 122.042969 Z M 133.046875 122.042969 " fill-opacity="1" fill-rule="nonzero"/></g></g></g></g><g clip-path="url(#2d5a032d92)"><g clip-path="url(#d31b66afe8)"><g clip-path="url(#c0e06f79bf)"><g clip-path="url(#375ffba18d)"><path fill="#f54c5f" d="M 149.332031 48.492188 C 150.007812 52.128906 149.710938 55.664062 149.054688 59.195312 C 148.785156 60.648438 148.351562 62.050781 147.71875 63.394531 C 147.511719 63.828125 147.261719 63.992188 146.78125 63.839844 C 143.019531 62.652344 139.167969 61.753906 135.433594 60.464844 C 134.96875 60.304688 134.980469 60.121094 135.234375 59.777344 C 136.210938 58.476562 137.316406 57.285156 138.402344 56.082031 C 141.363281 52.804688 144.589844 49.839844 148.359375 47.5 C 149.046875 47.074219 149.046875 47.074219 149.195312 47.902344 C 149.238281 48.125 149.296875 48.339844 149.332031 48.492188 Z M 149.332031 48.492188 " fill-opacity="1" fill-rule="nonzero"/></g></g></g></g></svg>